<?xml version="1.0" standalone="no"?>
<!DOCTYPE svg PUBLIC "-//W3C//DTD SVG 20010904//EN"
 "http://www.w3.org/TR/2001/REC-SVG-20010904/DTD/svg10.dtd">
<svg version="1.0" xmlns="http://www.w3.org/2000/svg"
 width="700.000000pt" height="700.000000pt" viewBox="0 0 700.000000 700.000000"
 preserveAspectRatio="xMidYMid meet">
<metadata>
Created by potrace 1.14, written by Peter Selinger 2001-2017
</metadata>
<g transform="translate(0.000000,700.000000) scale(0.100000,-0.100000)"
fill="#000000" stroke="none">
<path d="M3427 6994 c-1 -1 -60 -4 -132 -8 -71 -3 -141 -8 -155 -10 -14 -2
-51 -7 -84 -11 -32 -4 -68 -8 -80 -10 -11 -2 -37 -6 -56 -9 -136 -20 -327 -68
-510 -127 -646 -209 -1236 -624 -1665 -1169 -279 -356 -482 -753 -610 -1192
-19 -66 -37 -132 -40 -147 -3 -14 -7 -36 -10 -48 -12 -54 -15 -71 -25 -123
-16 -91 -19 -111 -26 -159 -3 -25 -8 -57 -10 -71 -19 -118 -26 -560 -12 -705
4 -38 10 -97 13 -130 3 -33 8 -71 11 -85 3 -14 8 -41 10 -60 16 -127 109 -490
153 -595 5 -11 26 -65 46 -120 130 -340 372 -738 618 -1015 132 -149 323 -332
437 -420 25 -19 47 -37 50 -40 10 -13 239 -173 292 -205 321 -195 546 -294
928 -409 39 -12 153 -39 215 -52 135 -27 153 -30 224 -40 25 -3 57 -8 71 -10
167 -26 653 -25 848 2 79 10 106 15 126 19 12 2 37 7 56 9 55 8 139 25 184 37
23 6 51 13 64 15 73 14 461 144 487 164 6 4 21 11 35 15 14 4 84 36 155 71
480 234 922 595 1241 1014 27 36 52 66 57 68 4 2 7 10 7 17 0 7 3 15 8 17 21
9 175 258 253 408 50 95 76 151 137 290 74 168 187 555 207 710 6 44 17 107
20 120 2 8 7 47 11 85 3 39 8 84 11 100 8 57 10 510 2 590 -15 161 -19 189
-50 364 -40 230 -123 503 -224 740 l-53 124 62 76 c134 163 209 317 253 521
26 124 24 363 -6 483 -83 340 -289 611 -591 774 -417 224 -936 167 -1305 -144
l-70 -59 -80 37 c-282 129 -698 245 -982 274 -34 3 -72 8 -85 10 -42 9 -423
25 -431 19z m317 -788 c17 -3 57 -8 90 -11 34 -3 68 -8 76 -10 8 -2 35 -7 60
-10 148 -20 432 -104 612 -182 l86 -38 1 -120 c0 -66 2 -129 4 -140 3 -11 8
-40 12 -65 62 -393 350 -743 730 -888 151 -58 287 -81 446 -77 l96 3 26 -57
c14 -31 35 -81 47 -111 12 -30 26 -64 31 -75 32 -76 100 -335 119 -455 6 -41
13 -86 16 -100 2 -14 7 -54 10 -90 3 -36 7 -78 9 -95 6 -40 6 -305 0 -380 -37
-480 -189 -923 -448 -1310 -170 -253 -394 -493 -612 -655 -33 -25 -62 -47 -65
-51 -8 -8 -171 -113 -210 -135 -19 -10 -37 -22 -40 -25 -11 -12 -261 -130
-356 -167 -110 -44 -261 -89 -399 -120 -80 -18 -112 -24 -190 -37 -33 -6 -136
-17 -190 -20 -63 -5 -369 -5 -415 -1 -665 57 -1268 339 -1727 807 -207 211
-347 403 -480 657 -151 290 -263 657 -288 953 -4 41 -9 85 -11 99 -5 34 -5
333 1 395 24 259 63 448 136 669 28 82 56 161 63 175 7 14 41 83 74 154 34 70
87 167 117 216 49 79 180 268 194 281 3 3 45 51 93 106 145 167 348 343 548
475 341 224 722 365 1140 424 19 2 80 8 135 11 55 4 101 8 103 9 5 4 328 -4
356 -9z m2218 -12 c54 -17 131 -72 172 -121 30 -35 72 -123 81 -168 11 -53 5
-143 -11 -192 -36 -107 -97 -176 -201 -229 -67 -34 -82 -38 -156 -38 -97 -1
-123 4 -194 40 -157 80 -239 268 -193 441 59 218 286 339 502 267z"/>
<path d="M3359 5047 c-2 -3 -29 -7 -59 -10 -81 -8 -191 -33 -293 -68 -747
-250 -1191 -1021 -1028 -1789 42 -198 108 -360 215 -525 210 -322 523 -553
888 -654 75 -21 86 -23 198 -42 93 -16 327 -18 417 -3 43 7 92 14 108 17 17 3
50 10 75 17 25 7 50 13 55 15 6 1 17 4 25 7 8 3 44 16 80 29 101 35 286 132
365 191 339 254 556 601 626 998 21 118 29 362 15 445 -4 22 -11 68 -16 101
-30 186 -118 404 -234 577 -82 122 -85 126 -201 242 -236 237 -499 371 -865
440 -40 8 -364 18 -371 12z"/>
</g>
</svg>
