<svg data-v-423bf9ae="" xmlns="http://www.w3.org/2000/svg" viewBox="0 0 378 90" class="iconLeft"><!----><!----><!----><g data-v-423bf9ae="" id="06cc8f80-5e7d-4218-acfd-7c8568929ca0" fill="currentColor" transform="matrix(5.244754791259766,0,0,5.244754791259766,107.95454406738281,-14.265729904174805)"><path d="M1.11 11.03L1.11 11.03L3.75 10.88Q3.82 10.75 3.82 10.26L3.82 10.26Q3.82 9.65 3.47 9.23Q3.11 8.80 2.60 8.80L2.60 8.80Q1.92 8.80 1.51 9.39Q1.11 9.98 1.11 11.03ZM0.39 11.59L0.39 11.59Q0.39 10.12 1.14 9.27Q1.89 8.42 2.93 8.42L2.93 8.42Q3.71 8.42 4.12 8.90Q4.52 9.37 4.52 10.42L4.52 10.42Q4.52 10.82 4.40 11.31L4.40 11.31L1.09 11.36Q1.09 11.94 1.21 12.42Q1.33 12.89 1.57 13.26Q1.80 13.62 2.20 13.83Q2.59 14.03 3.11 14.03L3.11 14.03Q4.01 14.03 4.59 13.46L4.59 13.46L4.70 13.69Q4.40 14.10 3.88 14.35Q3.37 14.59 2.72 14.59L2.72 14.59Q1.69 14.59 1.04 13.83Q0.39 13.07 0.39 11.59ZM8.14 14.40L5.37 14.40L5.43 14.18L6.48 13.99L6.48 6.23L5.43 6.04L5.43 5.84L7.05 5.71L7.11 5.77L7.11 13.99L8.22 14.17L8.14 14.40ZM9.65 11.03L9.65 11.03L12.29 10.88Q12.36 10.75 12.36 10.26L12.36 10.26Q12.36 9.65 12.00 9.23Q11.65 8.80 11.14 8.80L11.14 8.80Q10.46 8.80 10.05 9.39Q9.65 9.98 9.65 11.03ZM8.93 11.59L8.93 11.59Q8.93 10.12 9.68 9.27Q10.42 8.42 11.47 8.42L11.47 8.42Q12.25 8.42 12.65 8.90Q13.06 9.37 13.06 10.42L13.06 10.42Q13.06 10.82 12.93 11.31L12.93 11.31L9.63 11.36Q9.63 11.94 9.75 12.42Q9.86 12.89 10.10 13.26Q10.34 13.62 10.74 13.83Q11.13 14.03 11.65 14.03L11.65 14.03Q12.55 14.03 13.13 13.46L13.13 13.46L13.24 13.69Q12.93 14.10 12.42 14.35Q11.91 14.59 11.26 14.59L11.26 14.59Q10.23 14.59 9.58 13.83Q8.93 13.07 8.93 11.59ZM16.59 14.40L13.94 14.40L13.99 14.17L15.04 14.01L15.04 9.01L13.99 8.82L14 8.63L15.60 8.50L15.64 8.55L15.61 9.50L15.66 9.50Q16.03 9.05 16.61 8.72Q17.20 8.38 17.81 8.38L17.81 8.38Q18.37 8.38 18.74 8.68Q19.11 8.98 19.21 9.50L19.21 9.50L19.28 9.50Q19.64 9.05 20.20 8.72Q20.77 8.38 21.37 8.38L21.37 8.38Q22.26 8.38 22.62 8.90Q22.98 9.43 22.98 10.39L22.98 10.39L22.98 13.99L23.97 14.12L23.90 14.38L21.37 14.38L21.40 14.17L22.33 14.01L22.33 10.58Q22.33 8.93 21.07 8.93L21.07 8.93Q20.23 8.93 19.31 9.88L19.31 9.88L19.31 14.01L20.21 14.14L20.15 14.40L17.75 14.40L17.79 14.17L18.71 14.01L18.71 10.58Q18.71 9.81 18.41 9.36Q18.11 8.91 17.51 8.91L17.51 8.91Q16.99 8.91 16.49 9.19Q15.99 9.47 15.67 9.89L15.67 9.89L15.67 14.01L16.65 14.14L16.59 14.40ZM25.44 11.03L25.44 11.03L28.09 10.88Q28.16 10.75 28.16 10.26L28.16 10.26Q28.16 9.65 27.80 9.23Q27.45 8.80 26.93 8.80L26.93 8.80Q26.26 8.80 25.85 9.39Q25.44 9.98 25.44 11.03ZM24.73 11.59L24.73 11.59Q24.73 10.12 25.47 9.27Q26.22 8.42 27.27 8.42L27.27 8.42Q28.05 8.42 28.45 8.90Q28.85 9.37 28.85 10.42L28.85 10.42Q28.85 10.82 28.73 11.31L28.73 11.31L25.43 11.36Q25.43 11.94 25.55 12.42Q25.66 12.89 25.90 13.26Q26.14 13.62 26.53 13.83Q26.93 14.03 27.45 14.03L27.45 14.03Q28.35 14.03 28.92 13.46L28.92 13.46L29.04 13.69Q28.73 14.10 28.22 14.35Q27.71 14.59 27.06 14.59L27.06 14.59Q26.02 14.59 25.38 13.83Q24.73 13.07 24.73 11.59ZM32.40 14.40L29.74 14.40L29.78 14.18L30.84 14.01L30.84 9.01L29.78 8.83L29.80 8.63L31.40 8.50L31.44 8.56L31.41 9.50L31.46 9.50Q31.75 9.11 32.38 8.75Q33.00 8.38 33.65 8.38L33.65 8.38Q34.32 8.38 34.74 8.87Q35.16 9.36 35.16 10.40L35.16 10.40L35.16 14.01L36.10 14.14L36.08 14.40L33.50 14.40L33.54 14.18L34.51 14.01L34.51 10.58Q34.51 9.73 34.19 9.32Q33.87 8.92 33.38 8.92L33.38 8.92Q32.80 8.92 32.42 9.12Q32.04 9.31 31.47 9.85L31.47 9.85L31.47 14.01L32.44 14.15L32.40 14.40ZM37.63 9.21L36.76 9.21L36.76 9.02Q37.10 8.90 37.25 8.82Q37.40 8.74 37.56 8.56Q37.72 8.37 37.81 8.07Q37.90 7.77 37.99 7.23L37.99 7.23L38.29 7.23L38.29 8.86L40.22 8.86L40.17 9.23L38.27 9.23L38.26 12.34Q38.26 13.25 38.47 13.57Q38.68 13.90 39.15 13.90L39.15 13.90Q39.38 13.90 39.66 13.77Q39.94 13.64 40.11 13.51L40.11 13.51L40.28 13.38L40.39 13.61Q40.08 14.04 39.64 14.30Q39.20 14.56 38.76 14.56L38.76 14.56Q38.14 14.56 37.87 14.10Q37.60 13.64 37.60 12.74L37.60 12.74L37.63 9.21ZM43.95 11.41L41.17 11.53L41.23 11.12L44.01 11.00L43.95 11.41ZM45.98 6.24L45.98 6.24Q45.98 5.58 46.41 5.58L46.41 5.58Q46.87 5.58 46.87 6.24L46.87 6.24Q46.87 6.94 46.42 6.94L46.42 6.94Q45.98 6.94 45.98 6.24ZM44.96 17.02L44.73 16.69Q45.14 16.37 45.43 15.99Q45.71 15.61 45.92 14.94Q46.12 14.26 46.12 13.38L46.12 13.38L46.12 9.00L45.08 8.82L45.11 8.63L46.72 8.50L46.77 8.56L46.77 13.36Q46.77 15.74 45.25 16.81L45.25 16.81L44.96 17.02ZM47.67 13.25L47.67 13.25Q47.67 12.78 48.22 12.65L48.22 12.65Q48.36 13.56 48.69 13.92Q49.01 14.29 49.70 14.29L49.70 14.29Q50.20 14.29 50.52 14Q50.84 13.71 50.84 13.34L50.84 13.34Q50.84 13.04 50.63 12.75Q50.42 12.46 50.11 12.25Q49.79 12.04 49.43 11.79Q49.06 11.54 48.75 11.30Q48.43 11.06 48.22 10.71Q48.02 10.36 48.02 9.96L48.02 9.96Q48.02 9.30 48.45 8.85Q48.89 8.40 49.75 8.40L49.75 8.40Q50.39 8.40 50.81 8.79Q51.24 9.17 51.24 9.67L51.24 9.67Q51.24 10.21 50.76 10.26L50.76 10.26L50.70 10.02Q50.50 9.27 50.22 8.99Q49.94 8.70 49.59 8.70L49.59 8.70Q49.09 8.70 48.82 8.93Q48.55 9.15 48.55 9.58L48.55 9.58Q48.55 9.88 48.71 10.15Q48.87 10.42 49.13 10.63Q49.38 10.84 49.69 11.04Q50.00 11.25 50.31 11.45Q50.62 11.66 50.88 11.88Q51.13 12.11 51.29 12.39Q51.45 12.67 51.45 13.00L51.45 13.00Q51.45 13.73 50.88 14.19Q50.30 14.64 49.48 14.64L49.48 14.64Q48.73 14.64 48.20 14.26Q47.67 13.88 47.67 13.25Z"></path></g><!----><g data-v-423bf9ae="" id="f2bd44a2-b503-4bd1-a98e-84e74c1f4b39" transform="matrix(4.999999523162842,0,0,4.999999523162842,0.000004291534423828125,1.0000090599060059)" stroke="none" fill="currentColor"><path d="M15 0a3 3 0 012.122 5.12A9.006 9.006 0 0118 9c0 4.962-4.037 9-9 9s-9-4.038-9-9 4.037-9 9-9c1.346 0 2.674.302 3.88.877A2.992 2.992 0 0115 0zM9 2C5.141 2 2 5.14 2 9s3.141 7 7 7 7-3.14 7-7c0-1.047-.234-2.08-.682-3.018l-.142.013L15 6a3 3 0 01-2.983-3.318A7.004 7.004 0 009 2zm0 3a4 4 0 110 8 4 4 0 010-8zm6-3c-.551 0-1 .449-1 1 0 .551.449 1 1 1 .551 0 1-.449 1-1 0-.551-.449-1-1-1z"></path></g><!----></svg>
