<svg xmlns="http://www.w3.org/2000/svg" viewBox="0 0.92 90 90.08"><path fill="#3f99e1" d="M75 1a15 15 0 0 1 10.61 25.6A45.03 45.03 0 0 1 90 46c0 24.81-20.185 45-45 45S0 70.81 0 46 20.185 1 45 1c6.73 0 13.37 1.51 19.4 4.385A14.96 14.96 0 0 1 75 1zM45 11c-19.295 0-35 15.7-35 35s15.705 35 35 35 35-15.7 35-35c0-5.235-1.17-10.4-3.41-15.09l-.71.065L75 31a15 15 0 0 1-14.915-16.59A35.02 35.02 0 0 0 45 11zm0 15a20 20 0 1 1 0 40 20 20 0 0 1 0-40zm30-15c-2.755 0-5 2.245-5 5s2.245 5 5 5 5-2.245 5-5-2.245-5-5-5z"/></svg>
